#!OML:ASF H:\MichaelJackson\Top Level 1\Subject 1\Session 1\male.ASF
:FULLY-SPECIFIED
:DEGREES
287
root -12.6966 17.0578 -34.543 11.1917 3.25488 -0.913001
lowerback -12.8088 2.29822 7.2293
upperback 2.94419 2.08083 -2.1082
thorax 10.8139 1.54944 -5.94864
lowerneck -10.3438 5.47858 1.21953
upperneck -4.02219 7.16833 -2.11392
head 0.580597 3.55162 -0.596174
rclavicle -1.99282e-014 -8.74653e-015
rhumerus -32.7821 10.8698 -100.848
rradius 34.2675
rwrist 14.1241
rhand -16.0466 -16.9945
rfingers 7.12502
rthumb 10.1552 -46.7294
lclavicle -1.99282e-014 -8.74653e-015
lhumerus -34.0107 -18.0714 94.1578
lradius 42.7477
lwrist 7.52605
lhand 14.6795 17.6619
lfingers 7.12502
lthumb 39.5498 43.0222
rfemur -20.8471 6.85597 21.9787
rtibia 33.0218
rfoot -10.479 -31.2775
rtoes -26.0481
lfemur -26.5789 5.58889 -19.3414
ltibia 35.1986
lfoot -23.2696 -11.7657
ltoes 58.0868
288
root -12.7036 17.0583 -34.5502 11.1864 3.20151 -0.990733
lowerback -12.6997 2.29451 7.19147
upperback 2.93659 2.08681 -2.0745
thorax 10.7383 1.5453 -5.88946
lowerneck -9.9031 4.96154 1.42171
upperneck -5.03534 6.45257 -2.28121
head 0.191893 3.19642 -0.733313
rclavicle -1.11816e-014 -1.74931e-014
rhumerus -32.7646 10.7413 -100.848
rradius 34.2805
rwrist 14.0711
rhand -16.125 -17.0685
rfingers 7.12502
rthumb 10.0796 -46.8071
lclavicle -1.11816e-014 -1.74931e-014
lhumerus -34.1096 -18.1515 94.2272
lradius 42.6664
lwrist 7.54907
lhand 13.8138 17.5786
lfingers 7.12502
lthumb 38.7339 43.1743
rfemur -20.912 6.91947 22.0734
rtibia 33.0135
rfoot -10.1669 -31.2493
rtoes -26.409
lfemur -26.601 5.59128 -19.2266
ltibia 35.1974
lfoot -23.2252 -11.6961
ltoes 58.0325
289
root -12.7093 17.0569 -34.5597 11.25 3.16714 -1.06097
lowerback -12.663 2.2955 7.16554
upperback 2.91373 2.09255 -2.04537
thorax 10.6891 1.54249 -5.84146
lowerneck -10.0545 4.51786 1.21904
upperneck -5.17368 5.88687 -1.64676
head 0.134617 2.92201 -0.52341
rclavicle 9.59136e-015 -1.94809e-014
rhumerus -32.7905 10.5291 -100.822
rradius 34.3828
rwrist 14.0927
rhand -16.2142 -17.2235
rfingers 7.12502
rthumb 9.99347 -46.9663
lclavicle 9.59136e-015 -1.94809e-014
lhumerus -34.1464 -18.2314 94.2946
lradius 42.512
lwrist 7.49577
lhand 13.1742 17.3863
lfingers 7.12502
lthumb 38.1304 43.15
rfemur -21.0562 6.92619 22.1582
rtibia 33.0546
rfoot -9.9661 -31.1787
rtoes -26.7378
lfemur -26.5968 4.43162 -18.9441
ltibia 35.1699
lfoot -23.6954 -10.618
ltoes 58.2242
290
root -12.6968 17.063 -34.5333 11.2992 3.20837 -0.788656
lowerback -13.1857 2.29208 7.05576
upperback 3.00283 2.07774 -2.14406
thorax 11.0952 1.55017 -5.88507
lowerneck -10.8666 3.66129 1.34333
upperneck -3.26468 4.7335 -1.36892
head 0.8563 2.33771 -0.46181
rclavicle -2.60408e-014 -4.17448e-015
rhumerus -32.8096 10.2553 -100.778
rradius 34.44
rwrist 14.2223
rhand -16.2605 -17.2318
rfingers 7.12502
rthumb 9.94885 -46.9767
lclavicle -2.60408e-014 -4.17448e-015
lhumerus -34.2009 -18.3143 94.3674
lradius 42.3285
lwrist 7.37673
lhand 12.5901 17.1314
lfingers 7.12502
lthumb 37.5786 43.044
rfemur -21.0108 5.51822 21.9035
rtibia 33.1126
rfoot -10.4757 -30.2326
rtoes -27.3249
lfemur -26.5605 5.80616 -19.5541
ltibia 35.111
lfoot -23.1058 -11.9632
ltoes 58.77
291
root -12.6837 17.0615 -34.508 11.3327 3.2074 -0.489542
lowerback -13.688 2.29814 6.92557
upperback 3.09824 2.08408 -2.25365
thorax 11.5008 1.56715 -5.9256
lowerneck -10.9471 3.25108 1.19542
upperneck -3.41395 4.20185 -1.05676
head 0.803741 2.07865 -0.362363
rclavicle 2.23633e-015 9.14409e-015
rhumerus -32.6857 10.1747 -100.779
rradius 34.2728
rwrist 14.1149
rhand -16.441 -17.1345
rfingers 7.12502
rthumb 9.77473 -46.8877
lclavicle 2.23633e-015 9.14409e-015
lhumerus -34.2205 -18.4195 94.4222
lradius 42.145
lwrist 7.23437
lhand 12.0463 16.8412
lfingers 7.12502
lthumb 37.0645 42.8889
rfemur -20.9144 4.1112 21.5983
rtibia 33.1821
rfoot -11.373 -29.2893
rtoes -27.5772
lfemur -26.2719 4.57556 -19.7796
ltibia 35.0576
lfoot -23.7314 -10.997
ltoes 58.6249
292
root -12.6892 17.0628 -34.5149 11.3642 3.16373 -0.518317
lowerback -13.5861 2.297 6.86382
upperback 3.06513 2.09902 -2.23481
thorax 11.4009 1.56435 -5.86646
lowerneck -11.2052 2.87191 1.04191
upperneck -3.38158 3.71107 -0.713876
head 0.841861 1.8401 -0.246505
rclavicle -7.65321e-015 -1.72943e-014
rhumerus -32.6827 10.0392 -100.761
rradius 34.2712
rwrist 14.0666
rhand -16.6148 -17.3131
rfingers 7.12502
rthumb 9.60701 -47.0741
lclavicle -7.65321e-015 -1.72943e-014
lhumerus -34.2911 -18.5251 94.4837
lradius 41.9939
lwrist 7.08224
lhand 11.3296 16.366
lfingers 7.12502
lthumb 36.3863 42.5867
rfemur -21.0584 3.85001 21.6655
rtibia 33.2323
rfoot -11.4105 -29.0398
rtoes -27.6837
lfemur -26.3082 4.52269 -19.7212
ltibia 35.0069
lfoot -23.6487 -10.912
ltoes 58.6073
293
root -12.6954 17.0625 -34.5224 11.3976 3.12248 -0.581709
lowerback -13.5579 2.30711 6.82721
upperback 3.05122 2.11767 -2.20241
thorax 11.3679 1.56749 -5.80501
lowerneck -11.1645 2.4577 1.06793
upperneck -3.62386 3.15713 -0.59881
head 0.751261 1.56482 -0.23999
rclavicle 3.47873e-016 -1.51076e-014
rhumerus -32.6019 9.89138 -100.728
rradius 34.2174
rwrist 14.0543
rhand -16.8027 -17.3761
rfingers 7.12502
rthumb 9.42576 -47.1453
lclavicle 3.47873e-016 -1.51076e-014
lhumerus -34.2868 -18.6667 94.5479
lradius 41.7986
lwrist 6.96218
lhand 10.9421 16.4269
lfingers 7.12502
lthumb 36.0193 42.7387
rfemur -21.1993 3.03019 21.8188
rtibia 33.2676
rfoot -11.7447 -28.3483
rtoes -27.9935
lfemur -26.3742 4.52733 -19.6283
ltibia 34.9945
lfoot -23.5763 -10.8369
ltoes 58.5634
294
root -12.7018 17.0634 -34.5295 11.4239 3.07627 -0.631172
lowerback -13.4983 2.31248 6.77108
upperback 3.03135 2.13605 -2.17389
thorax 11.3085 1.56828 -5.7372
lowerneck -10.4408 1.95145 1.53674
upperneck -4.7857 2.43784 -1.11487
head 0.271885 1.19249 -0.516735
rclavicle 1.43622e-014 1.35174e-014
rhumerus -32.6109 9.74377 -100.711
rradius 34.375
rwrist 13.8492
rhand -16.7634 -17.6057
rfingers 7.12502
rthumb 9.46364 -47.3732
lclavicle 1.43622e-014 1.35174e-014
lhumerus -34.2969 -18.8446 94.6148
lradius 41.6328
lwrist 6.92561
lhand 10.4196 16.1722
lfingers 7.12502
lthumb 35.5242 42.6043
rfemur -21.258 3.4247 21.8702
rtibia 33.2744
rfoot -11.3957 -28.6128
rtoes -28.1028
lfemur -26.434 4.50087 -19.5463
ltibia 35.0065
lfoot -23.5435 -10.7626
ltoes 58.558
295
root -12.7084 17.0632 -34.5365 11.4378 3.01623 -0.646341
lowerback -13.417 2.31978 6.68302
upperback 3.005 2.16508 -2.15407
thorax 11.2294 1.57155 -5.6586
lowerneck -10.379 1.60725 1.50722
upperneck -5.08082 1.98504 -0.95362
head 0.160706 0.967836 -0.478293
rclavicle -2.5842e-014 2.28602e-014
rhumerus -32.8101 9.44854 -100.656
rradius 34.8272
rwrist 13.5871
rhand -16.5216 -18.1045
rfingers 7.12502
rthumb 9.69696 -47.8613
lclavicle -2.5842e-014 2.28602e-014
lhumerus -34.3094 -19.0108 94.6847
lradius 41.4908
lwrist 6.91067
lhand 10.1388 16.3635
lfingers 7.12502
lthumb 35.258 42.859
rfemur -21.289 3.75259 21.8774
rtibia 33.2745
rfoot -11.1815 -28.7905
rtoes -28.2618
lfemur -26.4866 4.54845 -19.5109
ltibia 35.0256
lfoot -23.4821 -10.7089
ltoes 58.4872
296
root -12.7165 17.0633 -34.5456 11.4465 2.94341 -0.679376
lowerback -13.2977 2.32906 6.59932
upperback 2.9837 2.19766 -2.12879
thorax 11.1341 1.57632 -5.57628
lowerneck -10.4009 1.28306 1.44244
upperneck -5.26696 1.5627 -0.743005
head 0.0978861 0.759153 -0.416366
rclavicle -1.49089e-015 3.77691e-015
rhumerus -32.6328 9.44873 -100.653
rradius 34.5709
rwrist 13.403
rhand -16.7786 -18.1084
rfingers 7.12502
rthumb 9.449 -47.8766
lclavicle -1.49089e-015 3.77691e-015
lhumerus -34.3375 -19.1651 94.7462
lradius 41.4181
lwrist 6.98554
lhand 9.95507 16.8005
lfingers 7.12502
lthumb 35.0837 43.337
rfemur -21.3567 3.78444 21.9395
rtibia 33.2748
rfoot -11.0155 -28.7409
rtoes -28.4385
lfemur -26.5397 4.59854 -19.4481
ltibia 35.0361
lfoot -23.4018 -10.6951
ltoes 58.5114
297
root -12.7266 17.064 -34.5582 11.4521 2.86268 -0.743839
lowerback -13.1574 2.33835 6.51775
upperback 2.96244 2.22969 -2.09102
thorax 11.0258 1.58014 -5.48198
lowerneck -10.3444 0.974896 1.43388
upperneck -5.54883 1.15712 -0.573203
head -0.00522637 0.557198 -0.37576
rclavicle 7.25564e-015 1.15295e-014
rhumerus -32.5039 9.38885 -100.644
rradius 34.4053
rwrist 13.2424
rhand -17.1067 -18.2552
rfingers 7.12502
rthumb 9.13234 -48.0375
lclavicle 7.25564e-015 1.15295e-014
lhumerus -34.3167 -19.3726 94.7987
lradius 41.2986
lwrist 7.08299
lhand 9.50883 16.6759
lfingers 7.12502
lthumb 34.6603 43.3106
rfemur -21.4436 3.96374 22.0391
rtibia 33.2781
rfoot -10.7741 -28.7521
rtoes -28.6313
lfemur -26.6087 4.60003 -19.3278
ltibia 35.0475
lfoot -23.3532 -10.6032
ltoes 58.4747
298
root -12.7303 17.065 -34.5576 11.4715 2.83159 -0.741095
lowerback -13.2289 2.34201 6.47307
upperback 2.97477 2.23719 -2.08794
thorax 11.0806 1.5827 -5.45011
lowerneck -10.3454 0.700876 1.43949
upperneck -5.7419 0.794396 -0.441671
head -0.0696211 0.375948 -0.347124
rclavicle -2.83268e-015 4.57205e-015
rhumerus -32.5032 9.30444 -100.626
rradius 34.5795
rwrist 12.7133
rhand -17.6035 -18.911
rfingers 7.12502
rthumb 8.653 -48.7136
lclavicle -2.83268e-015 4.57205e-015
lhumerus -34.2272 -19.6588 94.8653
lradius 41.0887
lwrist 7.19428
lhand 9.07082 16.6692
lfingers 7.12502
lthumb 34.2445 43.3984
rfemur -21.4732 3.64387 22.0712
rtibia 33.2826
rfoot -10.8165 -28.487
rtoes -28.7596
lfemur -26.6161 4.62055 -19.3237
ltibia 35.053
lfoot -23.3265 -10.6208
ltoes 58.5033
